<?xml version="1.0"?>
<svg version="1.1" xmlns="http://www.w3.org/2000/svg" width="215" height="40" style=""><path fill="#0264ab" d="M30.904,34.784c0,0.224-0.168,0.336-0.42,0.336l-2.548,0c-0.504,0-0.84-0.14-1.092-0.56l-4.032-6.58l-2.156,0l0,6.44c0,0.42-0.168,0.7-0.644,0.7l-2.296,0c-0.476,0-0.672-0.224-0.672-0.7l0-17.864c0-0.616,0.14-0.812,0.756-0.812l4.144,0c2.436,0,5.012,0.364,6.496,2.072c0.896,1.036,1.344,2.408,1.344,3.92c0,2.576-1.372,4.592-3.612,5.572l4.592,7.084c0.084,0.14,0.14,0.28,0.14,0.392z M26.116,21.792c0-2.436-1.624-3.304-4.06-3.304l-1.4,0l0,6.776l1.736,0c2.24,0,3.724-1.204,3.724-3.472z M47.102,34.448c0,0.448-0.196,0.672-0.672,0.672l-10.388,0c-0.56,0-0.756-0.14-0.756-0.756l0-17.92c0-0.448,0.196-0.7,0.644-0.7l10.556,0c0.448,0,0.588,0.168,0.588,0.476l0,0.168l-0.196,1.68c-0.056,0.504-0.364,0.588-0.952,0.588l-7.028,0l0,5.068l6.468,0c0.532,0,0.7,0.224,0.7,0.616l0,1.596c0,0.476-0.196,0.672-0.672,0.672l-6.496,0l0,5.6l7.504,0c0.476,0,0.7,0.196,0.7,0.644l0,1.596z M67.752,34.672c0,0.28-0.14,0.448-0.504,0.448l-2.492,0c-0.588,0-0.784-0.224-0.952-0.672l-1.456-4.116l-7.084,0l-1.456,4.2c-0.112,0.364-0.308,0.588-0.756,0.588l-2.492,0c-0.28,0-0.392-0.14-0.392-0.364c0-0.084,0-0.196,0.056-0.308l6.832-18.144c0.14-0.336,0.336-0.56,0.756-0.56l2.24,0c0.42,0,0.672,0.196,0.784,0.504l6.86,18.06c0.056,0.14,0.056,0.252,0.056,0.364z M61.396,27.616l-1.988-5.908c-0.252-0.784-0.42-1.372-0.56-1.82l-0.056,0c-0.14,0.476-0.308,1.064-0.588,1.848l-1.988,5.88l5.18,0z M85.686,33.748c0,0.252-0.112,0.42-0.448,0.56c-1.848,0.756-3.528,1.148-5.572,1.148c-5.908,0-8.792-4.172-8.792-9.94c0-5.74,3.444-10.136,9.072-10.136c1.932,0,3.668,0.392,5.264,1.176c0.336,0.168,0.448,0.308,0.448,0.476c0,0.112-0.028,0.224-0.084,0.364l-0.644,1.764c-0.084,0.252-0.224,0.364-0.392,0.364c-0.084,0-0.196-0.056-0.308-0.112c-1.4-0.728-2.66-1.008-4.06-1.008c-3.892,0-5.404,3.584-5.404,6.972c0,4.312,2.016,7.056,5.46,7.056c1.344,0,2.716-0.308,4.032-0.896c0.14-0.056,0.252-0.112,0.336-0.112c0.196,0,0.336,0.14,0.448,0.42l0.56,1.512c0.056,0.14,0.084,0.28,0.084,0.392z M104.012,16.444l-0.196,1.624c-0.056,0.476-0.364,0.588-0.868,0.588l-5.068,0l0,15.82c0,0.532-0.112,0.644-0.588,0.644l-2.464,0c-0.504,0-0.588-0.112-0.588-0.616l0-15.848l-5.236,0c-0.476,0-0.644-0.196-0.644-0.672l0-1.652c0-0.42,0.196-0.588,0.616-0.588l14.168,0c0.728,0,0.924,0.224,0.868,0.7z"/><path fill="#d12446" d="M117.202,24.06l6.44,0l0,2.24l-6.44,0l0,6.58l2.8,0.56l0,1.68l-8.12,0l0-1.68l2.38-0.56l0-15.12l-2.38-0.56l0-1.54l5.32-0.14l8.54,0l0,4.62l-1.82,0l-0.7-2.38l-6.02,0l0,6.3z M139.4228,15.24c5.46,0,8.68,3.78,8.68,9.8c0,6.16-3.78,10.36-9.24,10.36s-8.54-3.5-8.54-9.94c0-6.16,3.5-10.22,9.1-10.22z M139.2828,17.62c-3.64,0-5.74,2.38-5.74,7.7c0,5.04,1.82,7.7,5.46,7.7s5.88-2.52,5.88-7.84c0-5.04-1.96-7.56-5.6-7.56z M162.4836,15.24c5.46,0,8.68,3.78,8.68,9.8c0,6.16-3.78,10.36-9.24,10.36s-8.54-3.5-8.54-9.94c0-6.16,3.5-10.22,9.1-10.22z M162.3436,17.62c-3.64,0-5.74,2.38-5.74,7.7c0,5.04,1.82,7.7,5.46,7.7s5.88-2.52,5.88-7.84c0-5.04-1.96-7.56-5.6-7.56z M178.4044,32.88l0-15.12l-2.38-0.56l0-1.54l5.32-0.14l3.5,0c5.46,0,8.82,3.36,8.82,9.52s-3.64,10.08-9.24,10.08l-8.4,0l0-1.68z M181.3444,32.88l3.22,0c3.5,0,5.88-2.38,5.88-7.7c0-5.18-2.24-7.42-5.74-7.42l-3.36,0l0,15.12z"/></svg>
